<svg height="512pt" viewBox="0 -18 512 512" width="512pt" xmlns="http://www.w3.org/2000/svg"><path d="m294.773438 172.628906c0 80.789063-65.492188 146.28125-146.28125 146.28125-80.792969 0-146.285157-65.492187-146.285157-146.28125 0-5.933594.351563-11.785156 1.042969-17.535156 13.40625 33.851562 46.429688 57.78125 85.046875 57.78125 50.5 0 91.4375-40.9375 91.4375-91.4375 0-43.820312-30.824219-80.441406-71.980469-89.355469 12.929688-3.742187 26.59375-5.75 40.738282-5.75 80.789062 0 146.28125 65.503907 146.28125 146.296875zm0 0" fill="#ffc440"/><path d="m320.839844 398.480469c0 30.050781-24.371094 54.410156-54.425782 54.410156h-198.371093c-37.582031 0-68.042969-30.460937-68.042969-68.03125 0-37.578125 30.460938-68.042969 68.042969-68.042969.921875 0 1.847656.03125 2.761719.074219 11.257812-49.523437 55.554687-86.488281 108.476562-86.488281 7.375 0 14.585938.71875 21.558594 2.09375 51.125 10.035156 89.691406 55.09375 89.691406 109.15625 0 2.648437-.101562 5.289062-.289062 7.898437 18.117187 8.832031 30.597656 27.421875 30.597656 48.929688zm0 0" fill="#5780bc"/><path d="m320.839844 398.480469c0 30.050781-24.371094 54.410156-54.425782 54.410156h-155.246093c-37.570313 0-68.03125-30.460937-68.03125-68.03125 0-37.578125 30.460937-68.042969 68.03125-68.042969.933593 0 1.859375.03125 2.773437.074219 9.683594-42.613281 43.832032-75.929687 86.898438-84.394531 51.125 10.035156 89.691406 55.09375 89.691406 109.15625 0 2.648437-.101562 5.289062-.289062 7.898437 18.117187 8.832031 30.597656 27.421875 30.597656 48.929688zm0 0" fill="#769edd"/><path d="m501.785156 330.425781c0 37.570313-30.464844 68.042969-68.042968 68.042969h-198.382813c-30.054687 0-54.414063-24.371094-54.414063-54.421875 0-21.507813 12.476563-40.097656 30.585938-48.929687-.1875-2.609376-.289062-5.25-.289062-7.898438 0-61.4375 49.8125-111.25 111.25-111.25 8.660156 0 17.082031.984375 25.164062 2.867188 41.367188 9.558593 73.894531 42.191406 83.3125 83.621093.925781-.042969 1.839844-.074219 2.773438-.074219 37.578124 0 68.042968 30.464844 68.042968 68.042969zm0 0" fill="#5780bc"/><path d="m501.785156 330.425781c0 37.570313-30.464844 68.042969-68.042968 68.042969h-148.007813c-30.050781 0-54.414063-24.371094-54.414063-54.421875 0-21.507813 12.480469-40.097656 30.585938-48.929687-.183594-2.609376-.277344-5.25-.277344-7.898438 0-52.769531 36.738282-96.953125 86.027344-108.382812 41.367188 9.558593 73.894531 42.191406 83.3125 83.621093.925781-.042969 1.839844-.074219 2.773438-.074219 37.578124 0 68.042968 30.464844 68.042968 68.042969zm0 0" fill="#769edd"/><g fill="#ffc440"><path d="m83.171875 112.457031c-4.253906 0-7.703125-3.449219-7.703125-7.703125v-21.566406c0-4.253906 3.449219-7.703125 7.703125-7.703125s7.703125 3.449219 7.703125 7.703125v21.566406c0 4.253906-3.449219 7.703125-7.703125 7.703125zm0 0"/><path d="m83.171875 167.132812c-4.253906 0-7.703125-3.449218-7.703125-7.703124v-21.566407c0-4.257812 3.449219-7.703125 7.703125-7.703125s7.703125 3.445313 7.703125 7.703125v21.566407c0 4.253906-3.449219 7.703124-7.703125 7.703124zm0 0"/><path d="m121.292969 129.011719h-21.570313c-4.253906 0-7.703125-3.449219-7.703125-7.703125s3.449219-7.703125 7.703125-7.703125h21.570313c4.253906 0 7.703125 3.449219 7.703125 7.703125s-3.449219 7.703125-7.703125 7.703125zm0 0"/><path d="m66.617188 129.011719h-21.566407c-4.253906 0-7.703125-3.449219-7.703125-7.703125s3.449219-7.703125 7.703125-7.703125h21.566407c4.253906 0 7.703124 3.449219 7.703124 7.703125s-3.449218 7.703125-7.703124 7.703125zm0 0"/><path d="m466.175781 36.972656c-4.253906 0-7.703125-3.449218-7.703125-7.703125v-21.566406c0-4.253906 3.449219-7.703125 7.703125-7.703125 4.253907 0 7.703125 3.449219 7.703125 7.703125v21.566406c0 4.257813-3.449218 7.703125-7.703125 7.703125zm0 0"/><path d="m466.175781 91.648438c-4.253906 0-7.703125-3.449219-7.703125-7.703126v-21.566406c0-4.253906 3.449219-7.703125 7.703125-7.703125 4.253907 0 7.703125 3.449219 7.703125 7.703125v21.566406c0 4.253907-3.449218 7.703126-7.703125 7.703126zm0 0"/><path d="m504.296875 53.527344h-21.566406c-4.257813 0-7.703125-3.449219-7.703125-7.703125 0-4.253907 3.445312-7.703125 7.703125-7.703125h21.566406c4.253906 0 7.703125 3.449218 7.703125 7.703125 0 4.253906-3.449219 7.703125-7.703125 7.703125zm0 0"/><path d="m449.621094 53.527344h-21.566406c-4.253907 0-7.703126-3.449219-7.703126-7.703125 0-4.253907 3.449219-7.703125 7.703126-7.703125h21.566406c4.257812 0 7.703125 3.449218 7.703125 7.703125 0 4.253906-3.445313 7.703125-7.703125 7.703125zm0 0"/><path d="m354.175781 100.640625c-4.253906 0-7.703125-3.449219-7.703125-7.703125v-21.570312c0-4.253907 3.449219-7.703126 7.703125-7.703126 4.257813 0 7.703125 3.449219 7.703125 7.703126v21.570312c0 4.253906-3.449218 7.703125-7.703125 7.703125zm0 0"/><path d="m354.175781 155.3125c-4.253906 0-7.703125-3.449219-7.703125-7.703125v-21.566406c0-4.253907 3.449219-7.703125 7.703125-7.703125 4.257813 0 7.703125 3.449218 7.703125 7.703125v21.566406c0 4.253906-3.449218 7.703125-7.703125 7.703125zm0 0"/><path d="m392.296875 117.191406h-21.566406c-4.253907 0-7.703125-3.445312-7.703125-7.699218 0-4.257813 3.449218-7.703126 7.703125-7.703126h21.566406c4.257813 0 7.703125 3.445313 7.703125 7.703126 0 4.253906-3.445312 7.699218-7.703125 7.699218zm0 0"/><path d="m337.621094 117.191406h-21.566406c-4.253907 0-7.703126-3.445312-7.703126-7.699218 0-4.257813 3.449219-7.703126 7.703126-7.703126h21.566406c4.257812 0 7.703125 3.445313 7.703125 7.703126 0 4.253906-3.445313 7.699218-7.703125 7.699218zm0 0"/><path d="m402.101562 421.960938c-4.257812 0-7.703124-3.449219-7.703124-7.703126v-21.566406c0-4.253906 3.445312-7.703125 7.703124-7.703125 4.253907 0 7.703126 3.449219 7.703126 7.703125v21.566406c0 4.253907-3.449219 7.703126-7.703126 7.703126zm0 0"/><path d="m402.101562 476.636719c-4.257812 0-7.703124-3.449219-7.703124-7.703125v-21.570313c0-4.253906 3.445312-7.703125 7.703124-7.703125 4.253907 0 7.703126 3.449219 7.703126 7.703125v21.570313c0 4.253906-3.449219 7.703125-7.703126 7.703125zm0 0"/><path d="m440.222656 438.515625h-21.570312c-4.253906 0-7.703125-3.449219-7.703125-7.703125s3.449219-7.703125 7.703125-7.703125h21.570312c4.253906 0 7.699219 3.449219 7.699219 7.703125s-3.445313 7.703125-7.699219 7.703125zm0 0"/><path d="m385.546875 438.515625h-21.566406c-4.257813 0-7.703125-3.449219-7.703125-7.703125s3.445312-7.703125 7.703125-7.703125h21.566406c4.253906 0 7.703125 3.449219 7.703125 7.703125s-3.449219 7.703125-7.703125 7.703125zm0 0"/></g></svg>